<?xml version="1.0" encoding="utf-8"?>
<!-- Generator: Adobe Illustrator 16.0.4, SVG Export Plug-In . SVG Version: 6.00 Build 0)  -->
<!DOCTYPE svg PUBLIC "-//W3C//DTD SVG 1.1//EN" "http://www.w3.org/Graphics/SVG/1.1/DTD/svg11.dtd">
<svg version="1.1" id="Layer_1" xmlns="http://www.w3.org/2000/svg" xmlns:xlink="http://www.w3.org/1999/xlink" x="0px" y="0px"
	 width="200px" height="200px" viewBox="0 0 200 200" style="enable-background:new 0 0 200 200;" xml:space="preserve">
<style type="text/css">
<![CDATA[
	.st0{fill:#E20074;}
	.st1{fill:#E5912F;}
	.st2{fill:#4D4C4E;}
	.st3{fill:#80217E;}
	.st4{fill:#5958C1;}
	.st5{fill:#8DB734;}
	.st6{fill:#BF7A7C;}
	.st7{fill:#90C84B;}
	.st8{fill:url(#SVGID_1_);}
	.st9{fill:url(#SVGID_2_);}
	.st10{fill:url(#SVGID_3_);}
	.st11{fill:#60B22E;}
	.st12{fill:#FFFFFF;}
	.st13{fill:#CA4F24;}
	.st14{fill:url(#network-6-icon_1_);}
	.st15{fill:#6B7475;}
	.st16{fill:#00B4CF;}
	.st17{fill:#00BDD6;}
	.st18{fill:#D6264F;}
	.st19{fill:#4470B3;}
]]>
</style>
<path class="st17" d="M195,100c0,52.467-42.533,95-95,95S5,152.467,5,100S47.533,5,100,5S195,47.533,195,100z M100,23.392
	c-42.31,0-76.608,34.299-76.608,76.608S57.69,176.608,100,176.608S176.608,142.31,176.608,100S142.31,23.392,100,23.392z
	 M100,59.466c-22.387,0-40.534,18.147-40.534,40.534S77.613,140.534,100,140.534s40.534-18.147,40.534-40.534
	S122.387,59.466,100,59.466z"/>
<path class="st12" d="M107.476,120.479c-4.461,0-8.227-3.19-9.06-7.463c-6.326-0.004-7.519-0.04-7.85-0.067
	c-0.116-0.01-0.229-0.035-0.338-0.074c-0.133-0.049-3.053-1.145-4.62-4.465c-4.127-0.017-6.951-0.031-6.951-0.031
	c-2.498-0.026-7.208-1.381-7.208-6.311c0-2.065,0.647-3.686,1.921-4.816c1.214-1.078,2.739-1.441,3.868-1.55
	c0.025-1.308,0.424-3.173,2.157-4.704c1.698-1.504,3.721-1.658,5.124-1.52c0.348-4.029,2.646-9.936,9.804-11.12
	c8.242-1.364,12.86,4.41,14.629,8.68c2.857-1.285,6.699-1.145,9.93,0.476c3.784,1.896,5.953,5.357,5.953,9.494
	c0,2.213-0.441,4.206-1.315,5.953c1.675,0.671,3.031,2.16,3.031,4.813c0,4.046-3.836,5.157-5.865,5.18l-4.143,0.019
	C115.73,117.269,111.96,120.479,107.476,120.479z M90.974,110.36c0.646,0.023,2.738,0.048,8.589,0.048
	c0.69,0,1.262,0.538,1.302,1.229c0.208,3.495,3.111,6.234,6.611,6.234c3.516,0,6.421-2.753,6.611-6.269
	c0.038-0.689,0.606-1.231,1.298-1.233l5.28-0.025c-0.004,0,0.944-0.022,1.835-0.42c0.983-0.44,1.442-1.123,1.442-2.149
	c0-0.688,0-2.513-2.585-2.64c-0.004,0-0.01-0.001-0.014-0.001c-0.05-0.003-0.094-0.005-0.138-0.003c-0.004-0.001-0.005,0-0.008,0
	c-0.014-0.004-0.04-0.001-0.06-0.002c-0.165,0.002-0.274,0.011-0.297,0.014c-0.143,0.014-0.284,0.004-0.421-0.028
	c-0.287-0.062-0.553-0.218-0.738-0.445c-0.267-0.325-0.38-0.758-0.27-1.164c0.011-0.047,0.351-1.513-0.841-2.567
	c-0.484-0.429-1.12-0.637-1.888-0.625c-0.602,0.018-1.056,0.168-1.061,0.17c-0.099,0.034-0.2,0.056-0.303,0.064
	c-0.335,0.044-0.676-0.043-0.951-0.252c-0.347-0.26-0.536-0.677-0.515-1.109c0.011-0.262,0.214-6.505-5.683-7.481
	c-0.435-0.072-0.869-0.114-1.291-0.126l0,0c-5.778-0.121-7.665,5.902-7.807,6.379c-0.038,0.146-0.103,0.288-0.195,0.419
	c-0.259,0.366-0.67,0.561-1.088,0.552c-0.3,0.011-0.562-0.086-0.794-0.26c-0.768-0.571-1.855-0.886-3.067-0.886
	c-0.007,0-0.017,0.001-0.023,0l0,0c-3.208,0.023-6.622,2.159-6.622,6.073c0,0.6,0.146,1.542,0.433,2.8
	c0.007,0.03,0.014,0.062,0.021,0.097C88.609,109.1,90.445,110.109,90.974,110.36z M78.683,105.771c0.009,0,2.456,0.012,6.114,0.027
	c-0.105-0.629-0.16-1.277-0.16-1.943c0-5.417,4.707-8.668,9.259-8.683c1.145-0.001,2.23,0.19,3.19,0.571
	c1.372-3.066,4.479-6.884,9.789-6.776c-0.27-0.773-1.052-2.751-2.563-4.561c-2.462-2.948-5.68-4.118-9.562-3.476
	c-7.96,1.316-7.676,9.708-7.66,10.064c0.021,0.434-0.178,0.852-0.527,1.109c-0.35,0.259-0.805,0.327-1.214,0.181
	c-0.018-0.007-2.519-0.845-4.225,0.665c-1.72,1.521-1.22,3.623-1.197,3.711c0.104,0.417-0.002,0.863-0.285,1.186
	c-0.283,0.321-0.706,0.488-1.132,0.438c-0.014-0.002-2.14-0.22-3.417,0.924c-0.695,0.625-1.033,1.559-1.033,2.858
	C74.059,105.588,78.209,105.763,78.683,105.771L78.683,105.771z M116.802,97.701c1.362,0,2.586,0.441,3.536,1.281
	c0.605,0.536,1.021,1.138,1.298,1.744c0.394-1.123,0.591-2.366,0.591-3.72c0-4.263-2.828-6.317-4.514-7.162
	c-2.535-1.271-5.601-1.398-7.74-0.408c2.668,0.8,4.618,2.591,5.686,5.239c0.449,1.117,0.663,2.197,0.762,3.035
	c0.069-0.005,0.139-0.006,0.21-0.008C116.688,97.701,116.745,97.701,116.802,97.701z M100.909,108.447c-0.008,0-0.015,0-0.022,0
	c-0.717-0.012-1.289-0.595-1.282-1.312c0-0.06,0.131-5.987,6.488-6.097c0.008,0,0.017,0,0.023,0c0.71,0,1.291,0.568,1.304,1.281
	c0.013,0.721-0.561,1.314-1.282,1.327c-3.654,0.062-3.91,2.946-3.925,3.523C102.195,107.879,101.614,108.447,100.909,108.447z"/>
</svg>
