<?xml version="1.0" encoding="utf-8"?>
<!-- Generator: Adobe Illustrator 16.0.4, SVG Export Plug-In . SVG Version: 6.00 Build 0)  -->
<!DOCTYPE svg PUBLIC "-//W3C//DTD SVG 1.1//EN" "http://www.w3.org/Graphics/SVG/1.1/DTD/svg11.dtd">
<svg version="1.1" id="Layer_1" xmlns="http://www.w3.org/2000/svg" xmlns:xlink="http://www.w3.org/1999/xlink" x="0px" y="0px"
	 width="675px" height="112px" viewBox="-0.523 -0.484 675 112" enable-background="new -0.523 -0.484 675 112"
	 xml:space="preserve">
<path fill="none" stroke="#00BDD6" stroke-width="1.28" d="M55.084,44.953c3.569-0.011,6.961,0.914,9.502,2.81
	c0,0,0.007-0.023,0.015-0.053C62.046,45.835,58.652,44.925,55.084,44.953z M90.706,30.083c-1.29-0.212-2.518-0.322-3.694-0.35
	c1.147,0.029,2.346,0.142,3.601,0.35c17.554,2.905,16.615,21.671,16.615,21.671s0.036-0.012,0.094-0.029
	C107.35,51.072,107.941,32.937,90.706,30.083z M117.817,53.497c-2.215-1.958-4.843-2.392-6.917-2.337
	c2.059-0.04,4.641,0.407,6.825,2.337c4.517,3.998,3.029,9.526,3.029,9.526s0.048-0.004,0.095-0.008
	C120.875,62.915,122.293,57.459,117.817,53.497z M121.931,62.977c0.036,0,0.076,0.004,0.112,0.004
	C122.007,62.98,121.964,62.977,121.931,62.977z"/>
<path fill="#00BDD6" d="M88.38,103.836c-10.943,0-20.182-7.829-22.225-18.309c-15.518-0.01-18.445-0.098-19.259-0.166
	c-0.282-0.023-0.561-0.084-0.827-0.182c-0.327-0.119-7.489-2.807-11.335-10.953c-10.122-0.041-17.053-0.076-17.053-0.076
	C11.553,74.084,0,70.761,0,58.667c0-5.065,1.585-9.04,4.71-11.815c2.979-2.646,6.723-3.536,9.491-3.801
	c0.062-3.21,1.04-7.784,5.291-11.542c4.167-3.688,9.129-4.066,12.572-3.727c0.852-9.884,6.488-24.375,24.05-27.281
	c20.223-3.347,31.552,10.821,35.889,21.294c7.012-3.152,16.437-2.81,24.362,1.165c9.281,4.654,14.604,13.144,14.604,23.294
	c0,5.426-1.083,10.318-3.228,14.604c4.108,1.646,7.436,5.3,7.436,11.809c0,9.927-9.411,12.654-14.388,12.708l-10.162,0.045
	C108.632,95.959,99.383,103.836,88.38,103.836z M47.899,79.009c1.581,0.06,6.716,0.12,21.07,0.12c1.694,0,3.094,1.32,3.194,3.012
	c0.508,8.576,7.632,15.295,16.217,15.295c8.628,0,15.754-6.754,16.222-15.377c0.092-1.692,1.487-3.021,3.182-3.027l12.955-0.059
	c-0.011,0,2.315-0.058,4.499-1.033c2.415-1.08,3.54-2.756,3.54-5.274c0-1.687,0-6.163-6.339-6.474c-0.012,0-0.025-0.002-0.037-0.002
	c-0.119-0.006-0.23-0.012-0.337-0.008c-0.008-0.002-0.012,0-0.019,0c-0.034-0.011-0.097-0.002-0.146-0.004
	c-0.405,0.004-0.674,0.025-0.729,0.03c-0.349,0.035-0.697,0.01-1.032-0.067c-0.703-0.154-1.354-0.533-1.812-1.093
	c-0.653-0.798-0.929-1.858-0.661-2.854c0.027-0.115,0.862-3.711-2.061-6.298c-1.19-1.052-2.749-1.563-4.631-1.534
	c-1.479,0.041-2.59,0.413-2.601,0.417c-0.243,0.083-0.493,0.135-0.744,0.158c-0.823,0.106-1.657-0.109-2.334-0.618
	c-0.85-0.638-1.315-1.661-1.262-2.722c0.027-0.641,0.524-15.96-13.942-18.354c-1.065-0.177-2.13-0.281-3.165-0.309h-0.001
	c-14.175-0.296-18.806,14.48-19.15,15.648c-0.095,0.359-0.254,0.708-0.48,1.028c-0.635,0.898-1.644,1.375-2.67,1.354
	c-0.735,0.026-1.38-0.21-1.95-0.635c-1.881-1.403-4.55-2.175-7.522-2.175c-0.019,0-0.04,0.002-0.059,0c0,0,0,0-0.001,0
	c-7.87,0.057-16.246,5.297-16.246,14.9c0,1.471,0.357,3.782,1.062,6.868c0.017,0.072,0.035,0.152,0.053,0.237
	C42.096,75.918,46.602,78.396,47.899,79.009z M17.743,67.752c0.023,0,6.028,0.03,15.003,0.068c-0.261-1.54-0.393-3.133-0.393-4.768
	c0-13.291,11.546-21.266,22.712-21.301c2.807-0.002,5.474,0.466,7.827,1.402c3.368-7.523,10.988-16.888,24.015-16.626
	c-0.66-1.898-2.58-6.747-6.288-11.187c-6.041-7.235-13.934-10.104-23.46-8.528C37.631,10.044,38.33,30.63,38.369,31.505
	c0.048,1.065-0.438,2.088-1.295,2.722c-0.858,0.634-1.975,0.802-2.979,0.443c-0.045-0.015-6.179-2.072-10.363,1.63
	c-4.221,3.732-2.992,8.889-2.938,9.106c0.255,1.021-0.004,2.116-0.7,2.906c-0.695,0.789-1.729,1.199-2.776,1.077
	c-0.035-0.005-5.25-0.54-8.383,2.268C7.229,53.188,6.4,55.48,6.4,58.667C6.4,67.3,16.583,67.732,17.743,67.752L17.743,67.752z
	 M111.261,47.955c3.343,0,6.343,1.082,8.676,3.144c1.484,1.314,2.503,2.789,3.181,4.278c0.965-2.756,1.451-5.806,1.451-9.125
	c0-10.459-6.938-15.5-11.073-17.573c-6.219-3.117-13.738-3.429-18.989-1c6.545,1.962,11.331,6.355,13.949,12.853
	c1.103,2.739,1.625,5.391,1.869,7.445c0.168-0.008,0.34-0.015,0.515-0.018C110.981,47.957,111.122,47.955,111.261,47.955z
	 M72.272,74.318c-0.019,0-0.037,0-0.056,0c-1.758-0.029-3.162-1.459-3.145-3.217c0.001-0.146,0.32-14.691,15.919-14.959
	c0.019,0,0.038,0,0.056,0c1.742,0,3.168,1.396,3.199,3.145c0.03,1.768-1.377,3.224-3.145,3.255c-8.965,0.153-9.595,7.229-9.63,8.646
	C75.427,72.924,74.004,74.318,72.272,74.318z"/>
<path fill="#231F20" d="M192.726,86.534c-19.313,0-34.969-16.466-34.969-36.8c0-20.229,15.656-36.693,34.969-36.693
	c16.065,0,27.856,9.553,32.327,23.479h-9.047c-3.865-8.845-11.792-15.25-23.28-15.25c-14.537,0-26.429,12.913-26.429,28.464
	c0,15.557,11.892,28.466,26.429,28.466c10.368,0,19.011-5.896,23.28-15.249h9.047C220.271,77.284,207.874,86.534,192.726,86.534"/>
<path fill="#231F20" d="M269.477,32.965h8.642V64.68c0,13.217-9.556,21.854-21.854,21.854c-12.305,0-21.859-8.64-21.859-21.854
	V32.965h8.539V64.68c0,7.83,5.185,13.521,13.32,13.521c8.027,0,13.212-5.69,13.212-13.521V32.965z"/>
<path fill="#231F20" d="M362.28,85.314h-8.64v-33.85c0-6.813-4.47-11.896-11.383-11.896s-11.388,5.082-11.388,11.896v33.85h-8.638
	v-33.85c0-6.813-4.477-11.896-11.387-11.896c-6.913,0-11.385,5.082-11.385,11.896v33.85h-8.639V51.77
	c0-11.386,8.233-20.127,20.024-20.127c7.114,0,12.606,3.354,15.656,8.644c3.151-5.289,8.642-8.644,15.757-8.644
	c11.893,0,20.021,8.741,20.021,20.127L362.28,85.314L362.28,85.314z"/>
<path fill="#231F20" d="M410.156,32.965h8.644V64.68c0,13.217-9.554,21.854-21.854,21.854s-21.858-8.64-21.858-21.854V32.965h8.539
	V64.68c0,7.83,5.185,13.521,13.319,13.521c8.03,0,13.212-5.69,13.212-13.521L410.156,32.965L410.156,32.965z"/>
<path fill="#231F20" d="M431.707,9.687h8.541v56.215c0,9.25,5.691,11.59,12.199,11.279v8.135
	c-12.303,1.425-20.74-5.793-20.74-19.112V9.687z"/>
<path fill="#231F20" d="M500.542,59.294c0-10.676-7.928-19.422-17.69-19.422c-9.655,0-17.584,8.746-17.584,19.422
	c0,10.47,7.929,19.011,17.584,19.011C492.614,78.305,500.542,69.764,500.542,59.294 M509.181,59.294
	c0,15.044-11.385,27.343-26.329,27.343c-14.84,0-26.325-12.299-26.325-27.343c0-15.248,11.485-27.651,26.325-27.651
	C497.796,31.643,509.181,44.046,509.181,59.294"/>
<path fill="#231F20" d="M542.628,86.534c-14.436,0-26.227-12.196-26.227-27.343c0-15.146,11.791-27.549,26.227-27.549
	c11.692,0,20.841,6.911,24.396,17.479h-9.253c-2.948-5.688-8.335-9.25-15.145-9.25c-9.655,0-17.584,8.747-17.584,19.32
	c0,10.569,7.929,19.111,17.584,19.111c6.909,0,12.301-3.562,15.145-9.256h9.253C563.566,79.624,554.32,86.534,542.628,86.534"/>
<path fill="#231F20" d="M586.238,85.314h-8.642v-52.35h8.642V85.314z M577.598,25.034v-6.506c0-2.334,1.935-4.164,4.269-4.164
	c2.441,0,4.373,1.83,4.373,4.164v6.506H577.598z"/>
<path fill="#231F20" d="M620.596,85.314c-12.194,1.427-20.633-5.791-20.633-19.111V21.78h8.536v11.185h11.896v8.232h-11.896v25.006
	c0,9.254,5.593,11.59,12.097,11.184V85.314z"/>
<path fill="#231F20" d="M673.953,32.965V89.18c0,13.719-9.553,21.853-21.856,21.853c-10.977,0-19.517-6.5-21.55-17.278h8.742
	c1.831,5.589,6.102,8.944,12.808,8.944c8.03,0,13.218-5.487,13.218-13.519v-7.826c-3.151,3.354-7.521,5.182-13.218,5.182
	c-12.301,0-21.853-8.639-21.853-21.855V32.965h8.538V64.68c0,7.83,5.184,13.521,13.313,13.521c8.03,0,13.217-5.69,13.217-13.521
	V32.965H673.953z"/>
<rect y="-0.007" fill="none" width="704.366" height="211.668"/>
</svg>
